<svg width="99" height="14" viewBox="0 0 99 14" fill="none" xmlns="http://www.w3.org/2000/svg">
<g id="ClickSPIN">
<path d="M6.81299 13.2461C2.43102 13.2461 0.21465 11.2469 0.806809 7.06372C1.39897 2.88052 4.17366 0.864517 8.55563 0.864517C9.23239 0.864517 10.1122 0.898118 10.7889 0.948518L10.2814 4.49332C9.58768 4.42612 8.75866 4.37572 8.06499 4.37572C5.95013 4.37572 4.83349 4.93012 4.52895 7.06372C4.24133 9.19732 5.18879 9.73492 7.30364 9.73492C7.99731 9.73492 8.91093 9.66772 9.6046 9.60052L9.11395 13.1453C8.42028 13.1957 7.48975 13.2461 6.81299 13.2461Z" fill="#FCFCFC"/>
<path d="M11.7674 12.9941L13.4424 1.13332H17.0969L15.8956 9.63412H20.2945L19.8208 12.9941H11.7674Z" fill="#FCFCFC"/>
<path d="M21.9043 12.9941L23.5793 1.13332H27.2338L25.5588 12.9941H21.9043Z" fill="#FCFCFC"/>
<path d="M34.809 13.2461C30.427 13.2461 28.2107 11.2469 28.8028 7.06372C29.395 2.88052 32.1697 0.864517 36.5517 0.864517C37.2284 0.864517 38.1082 0.898118 38.785 0.948518L38.2774 4.49332C37.5837 4.42612 36.7547 4.37572 36.061 4.37572C33.9462 4.37572 32.8295 4.93012 32.525 7.06372C32.2374 9.19732 33.1848 9.73492 35.2997 9.73492C35.9933 9.73492 36.907 9.66772 37.6006 9.60052L37.11 13.1453C36.4163 13.1957 35.4858 13.2461 34.809 13.2461Z" fill="#FCFCFC"/>
<path d="M47.3262 12.9941L44.7714 8.50852H44.0439L43.4179 12.9941H39.7635L41.4384 1.13332H45.0929L44.4838 5.38372H45.1775L49.0011 1.13332H53.1801L47.8845 6.87892L51.5051 12.9941H47.3262Z" fill="#FCFCFC"/>
<path d="M53.614 4.74532C54.0201 1.80532 56.7102 0.881318 60.2801 0.864517C60.9737 0.864517 62.581 0.881318 63.2409 0.931717L62.7333 4.51012C62.0904 4.44292 60.5169 4.34212 59.8402 4.34212C58.4021 4.34212 57.6069 4.42612 57.5392 4.94692C57.4546 5.53492 58.6728 5.58532 59.8232 5.82052C61.3629 6.13972 63.4608 6.87892 63.1224 9.24772C62.7333 12.0533 60.5846 13.2125 55.9827 13.2293C55.1198 13.2293 53.208 13.1453 52.6327 12.9773L53.1403 9.39892C53.8847 9.58372 55.6274 9.75172 56.5748 9.75172C58.3175 9.75172 59.0957 9.68452 59.1803 9.16372C59.2818 8.47492 57.6576 8.50852 56.2872 8.17252C54.9337 7.85332 53.2926 7.03012 53.614 4.74532Z" fill="#FCFCFC"/>
<path d="M76.5176 5.28292C76.1285 8.05492 74.2674 9.43252 70.2238 9.43252H68.9888L68.4981 12.9941H64.8436L66.5186 1.13332H71.3912C75.401 1.13332 76.9237 2.51092 76.5176 5.28292ZM72.7955 5.29972C72.897 4.64452 72.5248 4.47652 71.0529 4.47652H69.6994L69.4625 6.13972H70.816C72.2879 6.13972 72.7109 5.95492 72.7955 5.29972Z" fill="#FCFCFC"/>
<path d="M77.5745 12.9941L79.2495 1.13332H82.904L81.229 12.9941H77.5745Z" fill="#FCFCFC"/>
<path d="M91.5451 12.9941L89.1088 5.36692L88.026 12.9941H84.4054L86.0803 1.13332H91.2744L93.7107 8.77732L94.7935 1.13332H98.4142L96.7392 12.9941H91.5451Z" fill="#FCFCFC"/>
</g>
</svg>
